<svg width="1360" height="859" viewBox="0 0 1360 859" fill="none" xmlns="http://www.w3.org/2000/svg">
<path d="M238.861 387.723L258.205 411.117C251.322 420.877 245.627 431.554 241.321 442.976L211.111 440.099C203.189 439.356 196.172 445.154 195.424 453.062L191.037 499.363C190.276 507.276 196.078 514.288 203.983 515.05L234.224 517.913C236.294 529.949 239.896 541.509 244.807 552.38L221.404 571.723C215.279 576.791 214.423 585.865 219.473 591.972L249.113 627.823C254.177 633.953 263.232 634.8 269.371 629.755L292.779 610.397C302.525 617.284 313.211 622.98 324.633 627.268L321.761 657.509C321.013 665.417 326.815 672.439 334.719 673.183L381.02 677.578C388.919 678.327 395.959 672.524 396.698 664.615L399.579 634.383C411.601 632.309 423.162 628.724 434.041 623.795L453.38 647.212C458.444 653.333 467.517 654.197 473.647 649.125L509.485 619.498C515.606 614.435 516.475 605.383 511.398 599.249L492.054 575.837C498.937 566.087 504.628 555.395 508.943 543.983L539.166 546.873C547.088 547.617 554.1 541.796 554.853 533.892L559.24 487.601C560.002 479.687 554.194 472.67 546.281 471.918L516.058 469.054C513.979 457.028 510.39 445.463 505.465 434.579L528.86 415.226C535.008 410.181 535.85 401.112 530.787 394.982L501.168 359.153C496.101 353.019 487.036 352.145 480.906 357.218L457.507 376.566C447.753 369.67 437.075 363.984 425.649 359.673L428.525 329.454C429.274 321.528 423.471 314.524 415.553 313.767L369.258 309.385C361.353 308.623 354.341 314.435 353.584 322.343L350.702 352.558C338.68 354.65 327.111 358.244 316.249 363.173L296.897 339.751C291.833 333.622 282.778 332.775 276.652 337.834L240.792 367.456C234.654 372.538 233.793 381.598 238.861 387.723ZM382.288 418.036C423.959 421.988 454.536 458.973 450.589 500.649C446.632 542.316 409.643 572.897 367.98 568.936C326.282 564.993 295.714 528 299.679 486.324C303.622 444.652 340.612 414.07 382.288 418.036Z" fill="#C4C4C4" fill-opacity="0.33"/>
<path d="M38.8646 297.374C34.8094 295.281 29.8267 296.877 27.7297 300.936L15.497 324.694C13.4045 328.749 14.9997 333.74 19.0503 335.828L34.5809 343.813C33.1067 350.682 32.56 357.601 32.8692 364.452L16.223 369.789C11.881 371.164 9.47485 375.829 10.8729 380.166L19.0235 405.622C20.408 409.964 25.0591 412.374 29.3966 410.976L46.0563 405.644C49.7753 411.397 54.2517 416.716 59.4136 421.448L51.4153 436.956C49.3138 441.029 50.918 446.012 54.9776 448.1L78.7259 460.35C82.7811 462.434 87.7727 460.83 89.8608 456.797L97.859 441.253C104.724 442.723 111.646 443.274 118.493 442.969L123.812 459.607C125.192 463.962 129.852 466.346 134.198 464.957L159.641 456.819C164.005 455.43 166.393 450.775 164.995 446.428L159.681 429.796C165.43 426.072 170.757 421.596 175.485 416.429L191.006 424.432C195.066 426.511 200.053 424.929 202.141 420.861L214.378 397.117C216.466 393.066 214.88 388.075 210.82 385.978L195.294 377.979C196.755 371.133 197.315 364.21 197.006 357.35L213.63 352.036C217.985 350.637 220.378 345.995 218.998 341.64L210.852 316.189C209.463 311.843 204.803 309.45 200.465 310.839L183.832 316.162C180.104 310.409 175.624 305.094 170.462 300.363L178.46 284.846C180.539 280.786 178.953 275.794 174.907 273.711L151.154 261.474C147.09 259.372 142.116 260.976 140.006 265.031L132.025 280.549C125.17 279.088 118.242 278.532 111.382 278.841L106.068 262.191C104.683 257.858 100.019 255.46 95.6724 256.849L70.2303 264.996C65.8884 266.389 63.4822 271.027 64.8712 275.382L70.2034 292.015C64.45 295.752 59.1358 300.215 54.3995 305.372L38.8646 297.374ZM134.88 322.189C156.249 333.198 164.655 359.474 153.65 380.829C142.627 402.23 116.36 410.618 94.9913 399.599C73.5999 388.586 65.1894 362.314 76.2211 340.95C87.226 319.585 113.497 311.175 134.88 322.189Z" fill="#C4C4C4" fill-opacity="0.33"/>
<path d="M194.342 604.169C196.117 600.737 194.763 596.525 191.34 594.759L178.216 588.007C179.457 582.213 179.918 576.365 179.663 570.572L193.706 566.073C197.394 564.895 199.423 560.965 198.236 557.286L191.367 535.792C190.197 532.113 186.263 530.079 182.58 531.262L168.533 535.756C165.369 530.89 161.587 526.409 157.223 522.394L163.985 509.288C165.75 505.855 164.401 501.63 160.969 499.873L140.895 489.532C137.467 487.771 133.251 489.119 131.494 492.543L124.728 505.654C118.943 504.43 113.091 503.964 107.307 504.22L102.804 490.154C101.639 486.48 97.6954 484.455 94.0211 485.638L72.5176 492.516C68.8344 493.69 66.8091 497.615 67.9875 501.294L72.4863 515.346C67.6335 518.514 63.1258 522.286 59.1245 526.655L46.0136 519.898C42.5902 518.124 38.3648 519.472 36.6128 522.891L26.2711 542.965C24.4922 546.384 25.8499 550.61 29.2688 552.38L42.4065 559.128C41.1609 564.926 40.6814 570.764 40.9458 576.567L26.8805 581.061C23.2152 582.244 21.1988 586.169 22.3728 589.853L29.2419 611.347C30.4203 615.017 34.3545 617.051 38.0243 615.891L52.0896 611.388C55.2441 616.245 59.0169 620.726 63.3857 624.736L56.6197 637.856C54.8453 641.279 56.1985 645.5 59.6353 647.27L79.7004 657.603C83.1417 659.368 87.3536 658.024 89.1146 654.587L95.8582 641.481C101.67 642.704 107.522 643.179 113.302 642.919L117.81 656.98C118.975 660.663 122.918 662.688 126.592 661.505L148.087 654.627C151.761 653.445 153.791 649.506 152.612 645.836L148.118 631.78C152.975 628.634 157.483 624.861 161.462 620.488L174.595 627.25C178.019 629.006 182.231 627.68 183.996 624.247L194.342 604.169ZM93.4565 606.297C75.3854 596.973 68.2878 574.793 77.5899 556.717C86.8921 538.65 109.09 531.544 127.161 540.859C145.223 550.166 152.334 572.36 143.01 590.422C133.712 608.493 111.519 615.604 93.4565 606.297Z" fill="#C4C4C4" fill-opacity="0.33"/>
<path d="M1078.94 483.998L1068.27 455.579C1077.96 448.594 1086.82 440.353 1094.61 430.956L1122.24 443.514C1129.49 446.797 1138.01 443.6 1141.29 436.366L1160.52 394.019C1163.82 386.785 1160.61 378.265 1153.39 374.971L1125.73 362.415C1127.69 350.362 1128.05 338.258 1126.95 326.381L1155.37 315.713C1162.81 312.917 1166.58 304.616 1163.79 297.197L1147.44 253.648C1144.65 246.203 1136.37 242.453 1128.92 245.225L1100.48 255.904C1093.51 246.218 1085.26 237.353 1075.86 229.579L1088.42 201.922C1091.71 194.688 1088.51 186.16 1081.28 182.883L1038.93 163.648C1031.71 160.368 1023.16 163.562 1019.89 170.799L1007.32 198.444C995.274 196.491 983.176 196.115 971.285 197.232L960.626 168.794C957.832 161.358 949.534 157.585 942.087 160.385L898.555 176.726C891.118 179.52 887.349 187.795 890.151 195.248L900.816 223.683C891.133 230.661 882.271 238.916 874.475 248.301L846.84 235.726C839.592 232.443 831.067 235.662 827.781 242.891L808.558 285.23C805.261 292.463 808.466 300.989 815.703 304.278L843.346 316.827C841.395 328.875 841.022 340.979 842.133 352.873L813.712 363.552C806.256 366.32 802.506 374.621 805.297 382.065L821.633 425.586C824.427 433.037 832.713 436.815 840.16 434.015L868.585 423.342C875.562 433.039 883.806 441.892 893.205 449.689L880.644 477.323C877.355 484.574 880.561 493.086 887.8 496.38L930.145 515.6C937.37 518.895 945.893 515.683 949.185 508.453L961.748 480.824C973.796 482.761 985.906 483.131 997.78 482.008L1008.45 510.454C1011.24 517.899 1019.53 521.649 1026.97 518.86L1070.52 502.531C1077.98 499.726 1081.74 491.44 1078.94 483.998ZM953.209 408.629C915.096 391.321 898.23 346.395 915.535 308.276C932.845 270.169 977.777 253.301 1015.88 270.614C1054.02 287.922 1070.87 332.854 1053.55 370.966C1036.25 409.082 991.321 425.951 953.209 408.629Z" fill="#C4C4C4" fill-opacity="0.33"/>
<path d="M1263.26 623.671C1266.64 626.742 1271.86 626.491 1274.94 623.112L1292.9 603.331C1295.97 599.955 1295.72 594.721 1292.35 591.656L1279.42 579.923C1282.62 573.67 1284.94 567.128 1286.41 560.431L1303.87 559.584C1308.42 559.379 1311.95 555.496 1311.73 550.945L1310.44 524.247C1310.23 519.695 1306.36 516.163 1301.81 516.39L1284.34 517.229C1282.23 510.709 1279.29 504.413 1275.52 498.507L1287.26 485.597C1290.35 482.207 1290.09 476.979 1286.71 473.911L1266.94 455.931C1263.56 452.869 1258.32 453.127 1255.26 456.482L1243.51 469.426C1237.26 466.229 1230.72 463.905 1224.03 462.428L1223.2 444.981C1222.99 440.416 1219.11 436.908 1214.55 437.125L1187.87 438.4C1183.29 438.612 1179.78 442.491 1180.01 447.051L1180.83 464.492C1174.32 466.601 1168.01 469.546 1162.11 473.313L1149.19 461.565C1145.8 458.506 1140.58 458.743 1137.51 462.133L1119.54 481.901C1116.48 485.273 1116.72 490.505 1120.1 493.581L1133.02 505.325C1129.84 511.561 1127.51 518.103 1126.03 524.809L1108.6 525.64C1104.03 525.863 1100.52 529.727 1100.72 534.292L1102 560.984C1102.22 565.542 1106.1 569.059 1110.65 568.84L1128.09 568.003C1130.21 574.525 1133.16 580.818 1136.92 586.725L1125.18 599.643C1122.12 603.026 1122.36 608.258 1125.73 611.318L1145.51 629.286C1148.89 632.367 1154.11 632.105 1157.19 628.735L1168.92 615.812C1175.16 618.997 1181.71 621.327 1188.42 622.804L1189.24 640.262C1189.46 644.806 1193.34 648.329 1197.9 648.112L1224.58 646.828C1229.14 646.606 1232.66 642.749 1232.45 638.183L1231.6 620.737C1238.13 618.616 1244.41 615.681 1250.32 611.925L1263.26 623.671ZM1176.94 574.852C1159.15 558.687 1157.83 531.131 1173.99 513.351C1190.17 495.533 1217.71 494.229 1235.5 510.402C1253.32 526.577 1254.64 554.13 1238.45 571.912C1222.3 589.7 1194.74 591.024 1176.94 574.852Z" fill="#C4C4C4" fill-opacity="0.33"/>
<path d="M1188.16 266.933C1185.56 269.789 1185.78 274.207 1188.63 276.799L1199.56 286.718C1196.86 291.993 1194.9 297.522 1193.65 303.184L1178.92 303.895C1175.05 304.079 1172.07 307.349 1172.27 311.21L1173.34 333.75C1173.52 337.606 1176.79 340.589 1180.65 340.4L1195.39 339.695C1197.18 345.214 1199.68 350.521 1202.85 355.528L1192.93 366.438C1190.33 369.297 1190.54 373.727 1193.4 376.312L1210.12 391.497C1212.97 394.085 1217.4 393.874 1219.98 391.022L1229.91 380.109C1235.18 382.787 1240.71 384.752 1246.36 386.003L1247.07 400.754C1247.25 404.605 1250.53 407.582 1254.39 407.39L1276.94 406.312C1280.8 406.131 1283.77 402.864 1283.59 399.005L1282.88 384.268C1288.38 382.464 1293.71 379.986 1298.71 376.802L1309.63 386.722C1312.47 389.322 1316.9 389.113 1319.48 386.264L1334.67 369.551C1337.27 366.709 1337.05 362.276 1334.21 359.681L1323.26 349.763C1325.97 344.485 1327.94 338.969 1329.19 333.296L1343.94 332.595C1347.78 332.401 1350.75 329.132 1350.57 325.27L1349.49 302.73C1349.31 298.88 1346.03 295.897 1342.19 296.068L1327.44 296.778C1325.65 291.27 1323.16 285.965 1319.98 280.961L1329.91 270.039C1332.51 267.191 1332.3 262.764 1329.43 260.165L1312.73 244.991C1309.86 242.395 1305.44 242.603 1302.85 245.467L1292.95 256.382C1287.65 253.696 1282.12 251.723 1276.47 250.478L1275.76 235.729C1275.58 231.87 1272.3 228.893 1268.44 229.085L1245.9 230.165C1242.05 230.357 1239.07 233.636 1239.25 237.486L1239.96 252.226C1234.45 254.008 1229.12 256.485 1224.15 259.68L1213.21 249.749C1210.36 247.167 1205.95 247.358 1203.35 250.216L1188.16 266.933ZM1286.16 290.988C1301.2 304.672 1302.32 327.933 1288.65 342.985C1274.99 358.029 1251.71 359.148 1236.67 345.473C1221.63 331.808 1220.51 308.531 1234.19 293.497C1247.85 278.448 1271.12 277.324 1286.16 290.988Z" fill="#C4C4C4" fill-opacity="0.33"/>
</svg>
